<svg width="24" height="24" viewBox="0 0 24 24" fill="none" xmlns="http://www.w3.org/2000/svg">
  <circle cx="12" cy="12" r="10" fill="#4285F4"/>
  <path d="M22.56 12.25C22.56 11.47 22.49 10.72 22.36 10H12V14.26H17.92C17.66 15.63 16.88 16.8 15.71 17.57V20.34H19.28C21.36 18.42 22.56 15.6 22.56 12.25Z" fill="white"/>
  <path d="M12 23C15.24 23 17.95 21.92 19.28 20.34L15.71 17.57C14.74 18.22 13.48 18.63 12 18.63C8.91 18.63 6.26 16.67 5.4 13.9H1.67V16.76C2.99 19.39 7.22 23 12 23Z" fill="white"/>
</svg>
