<svg width="24" height="24" viewBox="0 0 24 24" fill="none" xmlns="http://www.w3.org/2000/svg">
  <rect width="24" height="24" rx="5" fill="url(#hailuo-bg)"/>
  <g transform="translate(2, 2)">
    <path d="M10 0C15.5 0 20 4.5 20 10C20 15.5 15.5 20 10 20C4.5 20 0 15.5 0 10C0 4.5 4.5 0 10 0Z" fill="white"/>
    <path d="M10 2C14.4 2 18 5.6 18 10C18 14.4 14.4 18 10 18C5.6 18 2 14.4 2 10C2 5.6 5.6 2 10 2Z" fill="url(#hailuo-inner)"/>
    <ellipse cx="10" cy="8" rx="2" ry="1" fill="white" opacity="0.8"/>
    <path d="M6 12C6 12 8 14 10 14C12 14 14 12 14 12" stroke="white" stroke-width="1" fill="none"/>
  </g>
  <defs>
    <linearGradient id="hailuo-bg" x1="0" y1="0" x2="24" y2="24">
      <stop offset="0%" stop-color="#FF6B35"/>
      <stop offset="50%" stop-color="#F7931E"/>
      <stop offset="100%" stop-color="#FFD700"/>
    </linearGradient>
    <radialGradient id="hailuo-inner" cx="10" cy="10" r="8">
      <stop offset="0%" stop-color="#FF69B4"/>
      <stop offset="50%" stop-color="#FF1493"/>
      <stop offset="100%" stop-color="#C71585"/>
    </radialGradient>
  </defs>
</svg>
